<svg width="1600" height="900" viewBox="0 0 1600 900" xmlns="http://www.w3.org/2000/svg">
  <rect width="1600" height="900" fill="#050816"/>
  <g opacity=".35">
    <circle cx="220" cy="130" r="3" fill="#68E1FD"/><circle cx="390" cy="220" r="3" fill="#A78BFA"/><circle cx="630" cy="110" r="3" fill="#68E1FD"/><circle cx="890" cy="245" r="3" fill="#A78BFA"/><circle cx="1230" cy="160" r="3" fill="#68E1FD"/><circle cx="1400" cy="320" r="3" fill="#A78BFA"/>
    <path d="M220 130 390 220 630 110 890 245 1230 160 1400 320" stroke="#68E1FD" stroke-width="1.5" fill="none"/>
    <circle cx="180" cy="630" r="3" fill="#A78BFA"/><circle cx="470" cy="520" r="3" fill="#68E1FD"/><circle cx="760" cy="660" r="3" fill="#A78BFA"/><circle cx="1060" cy="520" r="3" fill="#68E1FD"/><circle cx="1350" cy="690" r="3" fill="#A78BFA"/>
    <path d="M180 630 470 520 760 660 1060 520 1350 690" stroke="#A78BFA" stroke-width="1.5" fill="none"/>
  </g>
  <g opacity=".12" fill="none" stroke="#FFFFFF"><path d="M0 760 C260 640 410 840 690 710 S1210 660 1600 780"/><path d="M0 190 C300 90 470 310 760 180 S1270 100 1600 230"/></g>
</svg>
